<svg xmlns="http://www.w3.org/2000/svg" viewBox="0 0 160 160" width="160" height="160" role="img" aria-label="Ilustrace: cyklistická přilba">
  <!-- Vlastní ilustrace tématu Family – přilba s průduchy a páskem (2 barvy: petrolej #0F766E, mint #D9F2EC). -->
  <circle cx="80" cy="80" r="76" fill="#D9F2EC"/>
  <path d="M26 94a54 48 0 0 1 108 0v4a6 6 0 0 1-6 6H32a6 6 0 0 1-6-6z" fill="#0F766E"/>
  <rect x="52" y="56" width="11" height="30" rx="5.5" fill="#D9F2EC" transform="rotate(-16 57.5 71)"/>
  <rect x="74.5" y="50" width="11" height="34" rx="5.5" fill="#D9F2EC"/>
  <rect x="97" y="56" width="11" height="30" rx="5.5" fill="#D9F2EC" transform="rotate(16 102.5 71)"/>
  <path d="M60 106v10a6 6 0 0 0 6 6h28a6 6 0 0 0 6-6v-10" fill="none" stroke="#0F766E" stroke-width="6" stroke-linecap="round"/>
  <circle cx="80" cy="122" r="7" fill="#0F766E"/>
</svg>
